<?xml version="1.0" encoding="UTF-8"?>
<svg enable-background="new 0 0 400 300" version="1.1" viewBox="0 0 400 300" xml:space="preserve" xmlns="http://www.w3.org/2000/svg">
<style type="text/css">
	.st0{fill:#151515;}
	.st1{fill:#FFFFFF;}
	.st2{fill:#D6D6D6;}
</style>
<rect class="st0" x="-488" y="-109" width="1028" height="1028"/>

	<path class="st1" d="m196.34 70.76c-33.02 0-69.39 6.96-69.39 6.96l6.45 39.47c0.01 0 26.57-34.31 62.94-46.43z"/>
	<path class="st2" d="m196.34 70.76c-36.37 12.12-62.94 46.43-62.94 46.43l93.89-46.43h-30.95z"/>
	<path class="st2" d="m200.3 218.15c-45.91-33.79-61.91-77.04-61.91-77.04s7.22 46.08 61.91 88.13c0 0 45.4-30.44 60.1-86.93-15.22 42.05-60.1 75.84-60.1 75.84z"/>
	<path class="st1" d="m273.04 78.6s-5.14 2.02-13.44 5.37c-30.69 12.39-104.56 43-121.2 57.14 0 0 15.99 43.25 61.91 77.04 0 0 44.88-33.79 60.1-75.84l-59.84 27.08s-13.41-13.41-15.73-18.83c-0.01 0.01 42.55-47.19 88.2-71.96z"/>
	<path class="st2" d="m273.04 78.6c-35.85 21.41-88.22 71.97-88.22 71.97l83.32-34.57 4.9-37.4z"/>

</svg>
